<svg width="53" height="53" viewBox="0 0 53 53" fill="none" xmlns="http://www.w3.org/2000/svg">
<circle cx="26.5" cy="26.5" r="26.5" fill="black"/>
<g style="mix-blend-mode:difference">
<path d="M22.1875 44H12.7451C11.229 44 10 42.771 10 41.2549V22.494H18.75C19.7855 22.494 20.625 23.3335 20.625 24.369V40.9936C20.625 41.7246 20.8813 42.4326 21.3493 42.9942L22.1875 44ZM27.5 9C37.165 9 45 16.835 45 26.5C45 36.165 37.165 44 27.5 44C25.0838 44 23.0865 42.0412 23.0865 39.625V24.369C23.0865 23.3335 23.926 22.494 24.9615 22.494H34.0625V22.0305H24.9615C23.926 22.0305 23.0865 21.191 23.0865 20.1555V9H27.5ZM43.1251 40.2499C44.1606 40.2499 45 41.0896 45 42.1251C45 43.1605 44.1605 43.9999 43.1251 44C42.0896 44 41.2499 43.1606 41.2499 42.1251C41.2499 41.0896 42.0896 40.2499 43.1251 40.2499ZM23.0138 9C23.0138 17.125 20.3125 22.4375 10 22.3745V11.7451C10 10.229 11.229 9 12.7451 9H23.0138Z" fill="white"/>
</g>
</svg>
