<svg width="111" height="27" viewBox="0 0 111 27" fill="none" xmlns="http://www.w3.org/2000/svg">
<g style="mix-blend-mode:difference">
<path d="M109.775 9.93872C109.867 9.93872 109.99 9.93872 110.083 9.93872V12.0454C109.222 11.8905 108.176 11.6426 107.007 11.6426C104.977 11.6426 103.84 13.6564 103.84 18.2105V19.7905C103.84 22.8266 103.84 24.6854 103.84 24.6854H101.687C101.687 24.6854 101.656 21.3395 101.656 20.0693C101.656 20.0073 101.656 20.0073 101.656 20.0073C101.656 19.9764 101.656 19.7905 101.656 19.7905C101.656 19.7905 101.656 19.6046 101.687 19.3877V9.93872H103.809V13.7183C105.47 11.4568 107.776 9.93872 109.775 9.93872Z" fill="white"/>
<path d="M99.3691 23.665L99.5495 23.8197C98.828 24.5004 97.836 25.1811 97.1446 25.1811C96.0624 25.1811 95.5213 24.4076 95.5213 23.108C95.5213 22.3963 95.5814 21.499 95.6416 20.8802C95.0404 22.1488 92.4251 25.2121 90.0502 25.2121C87.7656 25.2121 86.3828 23.6959 86.3828 21.9322C86.3828 19.9829 88.1564 18.0954 93.2367 16.0223C93.2968 15.9913 93.387 15.9604 93.4772 15.9295L93.868 15.7748C93.9281 15.7438 93.9582 15.7438 93.9882 15.7129C94.9802 15.2797 95.6716 14.2895 95.7017 13.1447C95.7017 13.1137 95.7017 13.0828 95.7017 13.0519V12.99C95.7017 12.9281 95.7017 12.8662 95.7017 12.8043C95.7017 12.8043 95.7017 12.8043 95.7017 12.7734C95.7017 12.7115 95.6716 12.6496 95.6716 12.6187C95.6716 12.5877 95.6716 12.5877 95.6716 12.5568C95.6416 12.4949 95.6416 12.433 95.6416 12.3711C95.6115 12.3402 95.6115 12.2783 95.5814 12.2164C95.4612 11.8451 95.2808 11.5048 95.0403 11.1953C95.0103 11.1644 95.0103 11.1335 94.9802 11.1335C94.9201 11.0406 94.89 11.0097 94.86 10.9787H94.8299C94.6195 10.7003 94.3489 10.5456 94.0483 10.4218C93.6876 10.2671 93.2668 10.2052 92.7858 10.2052C92.6054 10.2052 92.395 10.2361 92.2146 10.2671C92.0944 10.2671 91.9741 10.298 91.884 10.329C91.4932 10.4218 91.1625 10.6074 90.8919 10.824C89.93 11.5976 89.5693 12.8043 89.1184 13.4541L87.7055 11.9379C88.5472 11.381 90.1104 10.5456 91.7036 10.1433C91.7938 10.1124 93.2367 9.74106 94.7397 10.0814C96.4532 10.4218 97.7458 11.4429 97.8661 12.6496C97.8661 12.6806 97.8661 12.6806 97.8661 12.6806C98.0765 14.3514 95.852 15.1869 95.852 15.1869L93.5373 16.2079C89.3588 18.0335 88.3668 18.8999 88.3668 21.0658C88.3668 22.6439 89.7196 23.9125 91.4631 23.9125C93.4171 23.9125 95.4011 21.2205 95.6716 20.2613C95.6716 20.2613 95.9722 19.395 96.9342 19.3331C97.8961 19.2712 97.836 20.3232 97.836 20.3232C97.806 20.9111 97.8059 21.3752 97.8059 21.6847C97.8059 23.3555 98.0164 24.191 98.5875 24.191C98.828 24.191 99.1286 23.9434 99.3691 23.665Z" fill="white"/>
<path d="M79.3854 10.0707C82.0849 10.0707 84.2762 11.3692 84.2762 15.8683V24.6854H81.9578C81.9896 23.8097 81.9896 22.8435 81.9896 22.2999V15.5965C81.9896 12.0335 80.2429 10.9162 78.4009 10.9162C76.5271 10.9162 75.2885 11.7013 73.8911 13.4828V24.6854H71.6362C71.6362 23.7795 71.6362 22.8133 71.6362 22.2396V2.61244C71.6362 2.40107 71.6362 2.2199 71.6362 2.03873H73.8911V13.0903C75.4155 11.2182 77.0987 10.0707 79.3854 10.0707Z" fill="white"/>
<path d="M63.97 16.3337C66.4553 17.1718 69.0029 18.0721 69.0029 20.7108C69.0029 23.3184 66.7039 25.2121 63.7525 25.2121C60.7079 25.2121 59.2477 24.4981 58.0671 24.1566C58.0361 24.1566 58.0361 24.1566 58.005 24.1255V21.1454C58.005 21.1454 61.7331 25.9571 66.1447 24.4981C67.1699 23.9703 67.5738 23.039 67.5738 22.0146C67.5738 19.9968 65.2748 19.2207 62.8826 18.4446C60.4283 17.6064 57.9429 16.6751 57.9429 14.3158C57.9429 11.3046 60.9253 9.93872 63.3486 9.93872C65.7408 9.93872 66.5485 10.1871 68.1951 10.4354H68.2262H68.2883C68.2883 10.4665 68.2883 10.4665 68.2883 10.4665H68.4437V10.5285V13.2914C65.7097 10.4044 62.6341 10.1871 62.3855 10.2492C62.3544 10.2492 62.3544 10.2492 62.3544 10.2492C60.5215 10.4975 59.3409 11.4288 59.3409 12.7326C59.3409 14.7504 61.6399 15.4955 63.97 16.3337Z" fill="white"/>
<path d="M53.129 9.93872H55.3094V24.9596H53.129V21.9933C51.6754 24.0129 50.0401 25.2121 47.8597 25.2121C45.2856 25.2121 43.196 23.8551 43.196 19.1532V9.93872H45.3159V19.4688C45.3462 23.1609 47.042 24.3285 48.7985 24.3285C50.5852 24.3285 51.7662 23.508 53.129 21.6146V9.93872Z" fill="white"/>
<path d="M40.9428 22.7259L41.0896 22.8766C40.2089 23.9317 39.0934 24.6854 37.8605 24.6854C36.0111 24.6854 35.1892 23.4795 35.1892 20.7363V10.5168H32.1362V10.3359C32.8114 10.3359 33.4866 10.2154 34.0737 10.0345C36.6569 9.16024 37.1853 6.77872 37.1853 6.77872H37.2734V10.3359H40.796V10.5168H37.2734V20.6458C37.2734 22.6958 37.9192 23.781 39.0934 23.781C39.7392 23.781 40.385 23.4193 40.9428 22.7259Z" fill="white"/>
<path d="M9.35304 26.86H2.10667C0.943187 26.86 0 25.9168 0 24.7533V10.3557H6.715C7.5097 10.3557 8.15393 10.9999 8.15393 11.7946V24.5528C8.15393 25.1138 8.35062 25.6571 8.70979 26.0881L9.35304 26.86ZM13.43 0C20.8472 0 26.86 6.01282 26.86 13.43C26.86 20.8472 20.8472 26.86 13.43 26.86C11.5757 26.86 10.043 25.3568 10.043 23.5025V11.7946C10.043 10.9999 10.6872 10.3557 11.4819 10.3557H18.4663V9.99997H11.4819C10.6872 9.99997 10.043 9.35574 10.043 8.56105V0H13.43ZM25.4212 23.982C26.2158 23.9821 26.86 24.6265 26.86 25.4211C26.86 26.2158 26.2158 26.86 25.4212 26.86C24.6265 26.86 23.9821 26.2158 23.982 25.4211C23.982 24.6264 24.6265 23.982 25.4212 23.982ZM9.98719 0C9.98719 6.23536 7.91411 10.3123 0 10.264V2.10666C0 0.943185 0.943187 0 2.10667 0H9.98719Z" fill="white"/>
</g>
</svg>
